<?xml version="1.0" encoding="UTF-8" standalone="no"?>
<!-- Created with Inkscape (http://www.inkscape.org/) -->

<svg
   width="179.10896mm"
   height="206.81735mm"
   viewBox="0 0 179.10896 206.81735"
   version="1.1"
   id="svg1"
   inkscape:version="1.4.2 (1:1.4.2+202505120737+ebf0e940d0)"
   sodipodi:docname="provolleyballr.svg"
   inkscape:export-filename="provolleyballr.png"
   inkscape:export-xdpi="96"
   inkscape:export-ydpi="96"
   xmlns:inkscape="http://www.inkscape.org/namespaces/inkscape"
   xmlns:sodipodi="http://sodipodi.sourceforge.net/DTD/sodipodi-0.dtd"
   xmlns="http://www.w3.org/2000/svg"
   xmlns:svg="http://www.w3.org/2000/svg">
  <sodipodi:namedview
     id="namedview1"
     pagecolor="#ffffff"
     bordercolor="#111111"
     borderopacity="1"
     inkscape:showpageshadow="0"
     inkscape:pageopacity="0"
     inkscape:pagecheckerboard="1"
     inkscape:deskcolor="#d1d1d1"
     inkscape:document-units="mm"
     inkscape:zoom="1.1321886"
     inkscape:cx="338.28286"
     inkscape:cy="390.83594"
     inkscape:window-width="1920"
     inkscape:window-height="1043"
     inkscape:window-x="1920"
     inkscape:window-y="0"
     inkscape:window-maximized="1"
     inkscape:current-layer="layer1" />
  <defs
     id="defs1">
    <radialGradient
       fx="0"
       fy="0"
       cx="0"
       cy="0"
       r="1"
       gradientUnits="userSpaceOnUse"
       gradientTransform="matrix(9687.86,-9687.86,-9687.86,-9687.86,7079.24,15182.7)"
       spreadMethod="pad"
       id="radialGradient5">
      <stop
         style="stop-opacity:1;stop-color:#e8f6f3"
         offset="0"
         id="stop3" />
      <stop
         style="stop-opacity:1;stop-color:#a5b6b1"
         offset="0.99766"
         id="stop4" />
      <stop
         style="stop-opacity:1;stop-color:#a5b6b1"
         offset="1"
         id="stop5" />
    </radialGradient>
    <clipPath
       clipPathUnits="userSpaceOnUse"
       id="clipPath5">
      <path
         d="m 18487.1,6312.1 c -77.3,356.8 -173.4,719.7 -287.6,1084.5 -249.7,798 -578.5,1578.7 -977.2,2320.3 -1066.3,1983.5 -2596.2,3642.4 -4549.2,4933.8 118,215.9 233.2,419.8 340.7,606 286.8,496.9 578.9,959.1 870.5,1377.7 1759.9,-1166.9 3162.8,-2647.3 4171.7,-4403.4 850,-1479.4 1238.8,-2838.9 1416,-3735.6 -93.4,-316 -204.9,-627.3 -334.3,-933.3 -184.3,-435.7 -401.7,-853 -650.6,-1250 z M 17244.7,4754.5 c -466.1,-466.1 -976.2,-874.5 -1525.4,-1222.1 -82.2,399.8 -278.7,1116.7 -745.5,2142.1 -366.6,805.1 -815.7,1629.9 -1372.5,2520.9 -656.6,1059.2 -1267.4,1883.9 -1815.5,2451.1 -243.2,251.6 -423.6,398.5 -537.7,480.1 15.6,138.6 62.1,407.8 200.8,835 236.2,727.3 615.9,1537.7 995,2261.4 1868,-1243.4 3331.7,-2835.2 4352.9,-4734.8 840.2,-1562.9 1177,-2978.2 1307.3,-3737.4 -259.9,-350.9 -546.6,-683.5 -859.4,-996.3 z m -2807.6,-1893 c -1088.7,-460.5 -2245.4,-694 -3437.9,-694 -1192.47,0 -2349.15,233.5 -3437.91,694 -787.79,333.2 -1515.46,774.2 -2172.01,1315.5 839.78,-210 1911.36,-385.2 3152.94,-387.1 6.91,0 13.55,0 20.45,0 2086.93,0 4129.03,489.2 6073.93,1454.3 298.7,-686.9 459.5,-1203 543.3,-1526.1 51.8,-199.4 80.7,-349.2 96.7,-448.1 -271.5,-150.3 -551.4,-286.6 -839.5,-408.5 z M 4600.31,4911.7 C 4041.89,5498 3571.49,6150.3 3195.2,6859.2 c 811.78,-259.1 2058.51,-558.5 3573.87,-601.3 126.36,-3.5 252.45,-5.3 378.48,-5.3 2117.25,0 4186.85,503.5 6160.45,1498.9 445.1,-724.8 816.3,-1404.8 1128.7,-2067.2 -1882.2,-936.7 -3857,-1411.4 -5874.05,-1411.4 -6.52,0 -13.16,0 -19.69,0 -1706.76,2.6 -3077.92,344.6 -3942.65,638.8 z m -2426.55,5733.9 c 388.24,-129 1106.92,-316.7 2225.27,-424.2 611.64,-58.8 1260.02,-87.9 1964.44,-87.9 291.36,0 592.45,5 904.28,14.9 1245.98,39.5 2265.94,156.4 3031.55,347.4 339.9,84.8 557.4,167.6 685.1,225.4 95.7,-70.5 262.3,-207.9 495.5,-453.8 332.1,-350.2 867.2,-994.2 1571.4,-2104.2 -2007,-1004.8 -4114.59,-1483.3 -6268.59,-1422.4 -1774.74,50.1 -3163.77,464.5 -3882.92,730.5 -13.16,30.2 -26.2,60.4 -39.04,90.8 -414.74,980.5 -645.25,2016.2 -686.99,3083.5 z m 686.99,3792.3 c 444.85,1051.8 1081.73,1996.4 1892.97,2807.6 811.24,811.2 1755.84,1448.1 2807.57,1893 112.67,47.6 226.1,92.7 340.18,135.5 -602.83,-622.8 -1291.46,-1463.3 -1914.1,-2535.9 -1052.33,-1812.7 -1654.77,-3833.3 -1792.42,-6009.7 -744.05,84.3 -1271.49,203.2 -1593.29,292.2 -196.41,54.4 -339.7,103.8 -433.34,139.4 19.97,1135.9 252.56,2237.9 692.43,3277.9 z m 8453.15,5389 C 10683.4,19253.4 9801.34,18324 9006.92,17034.1 7826.96,15118.3 7162.31,12963.2 7029.88,10625 c -860.7,-21.1 -1635.07,-2.5 -2353.89,56.7 130.95,2107.2 712.16,4062.1 1729.14,5813.9 855.53,1473.7 1838.95,2491.3 2527.39,3094.3 672.04,161.2 1363.08,242.6 2066.68,242.6 105.2,0 210.1,-1.9 314.7,-5.6 z m 3793.7,-1005.6 c -305.4,-270.8 -828.1,-799.3 -1482.1,-1716.4 -344.8,-479.3 -691.3,-1019.8 -1030,-1606.7 -787.4,-1363.5 -1335.1,-2526.3 -1628,-3456 -138.2,-439.1 -186.3,-726.4 -202.4,-889.9 -109,-47.6 -311.4,-123.1 -641,-202.1 -469.65,-112.5 -1295.61,-254 -2609.35,-309.3 133.6,2240.6 773.35,4305.1 1903.47,6139.9 930.88,1511.4 1984.18,2506.8 2574.48,2996.8 842,-93.9 1660.8,-307.7 2444.4,-639.1 228.7,-96.7 452.2,-202.6 670.5,-317.2 z m 4030.1,-4383.4 c 460.5,-1088.7 694,-2245.4 694,-3437.9 0,-490.5 -39.6,-974.8 -118.2,-1450.9 -237.6,832.3 -621,1847.5 -1238.6,2922.5 -1043.9,1817 -2492.9,3348.4 -4308.9,4555.5 445.3,602.6 812,999.9 1050,1234 146.9,144.5 262.2,244.3 339.9,307.5 611.7,-368.7 1176.8,-811.1 1688.8,-1323.1 811.2,-811.2 1448.1,-1755.8 1893,-2807.6 z"
         transform="translate(0,-2.5e-4)"
         id="path5" />
    </clipPath>
    <radialGradient
       fx="0"
       fy="0"
       cx="0"
       cy="0"
       r="1"
       gradientUnits="userSpaceOnUse"
       gradientTransform="matrix(9687.86,-9687.86,-9687.86,-9687.86,7079.24,15182.7)"
       spreadMethod="pad"
       id="radialGradient5-7">
      <stop
         style="stop-opacity:1;stop-color:#e8f6f3"
         offset="0"
         id="stop3-5" />
      <stop
         style="stop-opacity:1;stop-color:#a5b6b1"
         offset="0.99766"
         id="stop4-3" />
      <stop
         style="stop-opacity:1;stop-color:#a5b6b1"
         offset="1"
         id="stop5-5" />
    </radialGradient>
    <clipPath
       clipPathUnits="userSpaceOnUse"
       id="clipPath5-6">
      <path
         d="m 18487.1,6312.1 c -77.3,356.8 -173.4,719.7 -287.6,1084.5 -249.7,798 -578.5,1578.7 -977.2,2320.3 -1066.3,1983.5 -2596.2,3642.4 -4549.2,4933.8 118,215.9 233.2,419.8 340.7,606 286.8,496.9 578.9,959.1 870.5,1377.7 1759.9,-1166.9 3162.8,-2647.3 4171.7,-4403.4 850,-1479.4 1238.8,-2838.9 1416,-3735.6 -93.4,-316 -204.9,-627.3 -334.3,-933.3 -184.3,-435.7 -401.7,-853 -650.6,-1250 z M 17244.7,4754.5 c -466.1,-466.1 -976.2,-874.5 -1525.4,-1222.1 -82.2,399.8 -278.7,1116.7 -745.5,2142.1 -366.6,805.1 -815.7,1629.9 -1372.5,2520.9 -656.6,1059.2 -1267.4,1883.9 -1815.5,2451.1 -243.2,251.6 -423.6,398.5 -537.7,480.1 15.6,138.6 62.1,407.8 200.8,835 236.2,727.3 615.9,1537.7 995,2261.4 1868,-1243.4 3331.7,-2835.2 4352.9,-4734.8 840.2,-1562.9 1177,-2978.2 1307.3,-3737.4 -259.9,-350.9 -546.6,-683.5 -859.4,-996.3 z m -2807.6,-1893 c -1088.7,-460.5 -2245.4,-694 -3437.9,-694 -1192.47,0 -2349.15,233.5 -3437.91,694 -787.79,333.2 -1515.46,774.2 -2172.01,1315.5 839.78,-210 1911.36,-385.2 3152.94,-387.1 6.91,0 13.55,0 20.45,0 2086.93,0 4129.03,489.2 6073.93,1454.3 298.7,-686.9 459.5,-1203 543.3,-1526.1 51.8,-199.4 80.7,-349.2 96.7,-448.1 -271.5,-150.3 -551.4,-286.6 -839.5,-408.5 z M 4600.31,4911.7 C 4041.89,5498 3571.49,6150.3 3195.2,6859.2 c 811.78,-259.1 2058.51,-558.5 3573.87,-601.3 126.36,-3.5 252.45,-5.3 378.48,-5.3 2117.25,0 4186.85,503.5 6160.45,1498.9 445.1,-724.8 816.3,-1404.8 1128.7,-2067.2 -1882.2,-936.7 -3857,-1411.4 -5874.05,-1411.4 -6.52,0 -13.16,0 -19.69,0 -1706.76,2.6 -3077.92,344.6 -3942.65,638.8 z m -2426.55,5733.9 c 388.24,-129 1106.92,-316.7 2225.27,-424.2 611.64,-58.8 1260.02,-87.9 1964.44,-87.9 291.36,0 592.45,5 904.28,14.9 1245.98,39.5 2265.94,156.4 3031.55,347.4 339.9,84.8 557.4,167.6 685.1,225.4 95.7,-70.5 262.3,-207.9 495.5,-453.8 332.1,-350.2 867.2,-994.2 1571.4,-2104.2 -2007,-1004.8 -4114.59,-1483.3 -6268.59,-1422.4 -1774.74,50.1 -3163.77,464.5 -3882.92,730.5 -13.16,30.2 -26.2,60.4 -39.04,90.8 -414.74,980.5 -645.25,2016.2 -686.99,3083.5 z m 686.99,3792.3 c 444.85,1051.8 1081.73,1996.4 1892.97,2807.6 811.24,811.2 1755.84,1448.1 2807.57,1893 112.67,47.6 226.1,92.7 340.18,135.5 -602.83,-622.8 -1291.46,-1463.3 -1914.1,-2535.9 -1052.33,-1812.7 -1654.77,-3833.3 -1792.42,-6009.7 -744.05,84.3 -1271.49,203.2 -1593.29,292.2 -196.41,54.4 -339.7,103.8 -433.34,139.4 19.97,1135.9 252.56,2237.9 692.43,3277.9 z m 8453.15,5389 C 10683.4,19253.4 9801.34,18324 9006.92,17034.1 7826.96,15118.3 7162.31,12963.2 7029.88,10625 c -860.7,-21.1 -1635.07,-2.5 -2353.89,56.7 130.95,2107.2 712.16,4062.1 1729.14,5813.9 855.53,1473.7 1838.95,2491.3 2527.39,3094.3 672.04,161.2 1363.08,242.6 2066.68,242.6 105.2,0 210.1,-1.9 314.7,-5.6 z m 3793.7,-1005.6 c -305.4,-270.8 -828.1,-799.3 -1482.1,-1716.4 -344.8,-479.3 -691.3,-1019.8 -1030,-1606.7 -787.4,-1363.5 -1335.1,-2526.3 -1628,-3456 -138.2,-439.1 -186.3,-726.4 -202.4,-889.9 -109,-47.6 -311.4,-123.1 -641,-202.1 -469.65,-112.5 -1295.61,-254 -2609.35,-309.3 133.6,2240.6 773.35,4305.1 1903.47,6139.9 930.88,1511.4 1984.18,2506.8 2574.48,2996.8 842,-93.9 1660.8,-307.7 2444.4,-639.1 228.7,-96.7 452.2,-202.6 670.5,-317.2 z m 4030.1,-4383.4 c 460.5,-1088.7 694,-2245.4 694,-3437.9 0,-490.5 -39.6,-974.8 -118.2,-1450.9 -237.6,832.3 -621,1847.5 -1238.6,2922.5 -1043.9,1817 -2492.9,3348.4 -4308.9,4555.5 445.3,602.6 812,999.9 1050,1234 146.9,144.5 262.2,244.3 339.9,307.5 611.7,-368.7 1176.8,-811.1 1688.8,-1323.1 811.2,-811.2 1448.1,-1755.8 1893,-2807.6 z"
         transform="translate(0,-2.5e-4)"
         id="path5-2" />
    </clipPath>
  </defs>
  <g
     inkscape:label="Layer 1"
     inkscape:groupmode="layer"
     id="layer1"
     transform="translate(-15.445564,-45.091304)">
    <path
       sodipodi:type="star"
       style="fill:#0caa6a;fill-opacity:1;stroke:none;stroke-width:0.365358;stroke-linecap:square;stroke-linejoin:round;stroke-dasharray:none;stroke-opacity:0.996078"
       id="path3-2-0"
       inkscape:flatsided="true"
       sodipodi:sides="6"
       sodipodi:cx="31.536757"
       sodipodi:cy="210.36057"
       sodipodi:r1="37.781155"
       sodipodi:r2="32.71944"
       sodipodi:arg1="1.5707963"
       sodipodi:arg2="2.0943951"
       inkscape:rounded="0"
       inkscape:randomized="0"
       d="m 31.536758,248.14172 -32.7194407,-18.89058 -10e-7,-37.78115 32.7194397,-18.89058 32.71944,18.89058 10e-7,37.78115 z"
       transform="matrix(2.7370406,0,0,2.7370406,18.682666,-427.26543)" />
    <path
       id="path3"
       clip-path="url(#clipPath5-6)"
       style="fill:url(#radialGradient5-7);fill-opacity:1;fill-rule:nonzero;stroke:none"
       d="m 14197.839,19146.508 555.328,-669.82 c -297.496,-305.681 -678.269,-741.616 -1127.648,-1371.777 -344.8,-479.3 -691.308,-1019.802 -1030.008,-1606.702 -787.4,-1363.5 -1335.117,-2526.311 -1628.017,-3456.011 -138.2,-439.1 -186.295,-726.384 -202.395,-889.884 -109,-47.6 -311.41,-123.119 -641.01,-202.119 -469.6498,-112.5 -1295.5922,-253.997 -2609.3322,-309.297 133.6,2240.6 773.3379,4305.102 1903.4579,6139.902 435.0967,706.434 895.6653,1295.54 1324.4723,1777.599 z m 864.545,-1042.836 4597.523,-5545.564 -522.191,-1408.665 c -184.185,424.207 -401.428,867.173 -662.808,1322.134 -1043.9,1817 -2492.906,3348.435 -4308.906,4555.535 360.57,487.94 665.479,835.48 896.382,1076.56 z m -5061.01,328.515 c -330.8566,-407.114 -669.7129,-870.799 -994.4497,-1398.074 -1179.96,-1915.8 -1844.595,-4070.906 -1977.025,-6409.106 -860.7,-21.1 -1635.107,-2.499 -2353.927,56.701 130.95,2107.2 712.1724,4062.1 1729.1524,5813.9 328.7779,566.339 676.2579,1063.896 1018.8106,1497.873 z m 3882.949,-1797.777 c 1759.9,-1166.9 3162.779,-2647.307 4171.679,-4403.407 352.392,-613.329 621.911,-1203.326 833.551,-1751.005 l -907.696,-2448.6027 c -213.51,577.0211 -467.3,1141.8949 -759.546,1685.4858 -1066.3,1983.4999 -2596.207,3642.4369 -4549.207,4933.8369 118,215.9 233.221,419.788 340.721,605.988 286.8,496.9 578.898,959.104 870.498,1377.704 z m -7156.1793,1240.614 c -250.9271,-345.307 -500.7754,-723.473 -740.7858,-1136.931 -1052.33,-1812.7 -1654.7798,-3833.297 -1792.4298,-6009.697 -378.5883,42.893 -699.7386,94.697 -967.6119,147.01 l 2533.7315,6835.001 z M 12443.901,14223.01 c 1868,-1243.4 3331.716,-2835.219 4352.916,-4734.8194 420.366,-781.9444 714.653,-1526.9057 920.184,-2171.2735 l -1031.777,-2783.3248 -1183.49,-201.4388 c -118.468,364.8658 -285.558,809.9276 -527.928,1342.3305 -366.6,805.1 -815.733,1629.9036 -1372.533,2520.9036 -656.6,1059.2 -1267.375,1883.9154 -1815.475,2451.1154 -243.2,251.6 -423.612,398.514 -537.712,480.114 15.6,138.6 62.126,407.756 200.826,834.956 236.2,727.3 615.889,1537.737 994.989,2261.437 z M 10984.4,10721.179 c 95.7,-70.5 262.276,-207.884 495.476,-453.784 332.1,-350.2003 867.224,-994.2177 1571.424,-2104.2177 -2007,-1004.8 -4114.5732,-1483.2627 -6268.5732,-1422.3627 -615.0301,17.362 -1179.8128,80.0928 -1690.373,163.6179 l -2305.9897,2781.4595 271.1894,731.561 c 361.062,-73.513 802.4978,-144.253 1341.46,-196.06 611.64,-58.8 1260.054,-87.889 1964.474,-87.889 291.36,0 592.4253,5.007 904.2553,14.907 1245.98,39.5 2265.936,156.407 3031.5462,347.407 339.9,84.8 557.411,167.561 685.111,225.361 z m 2323.614,-2969.664 c 445.1,-724.8 816.305,-1404.8206 1128.705,-2067.2206 -1882.2,-936.7 -3857.019,-1411.3826 -5874.0685,-1411.3826 l -19.7021,0.01 c -471.002,0.7175 -913.4424,28.9876 -1329.7388,73.2619 L 5551.1193,6351.0036 c 382.8168,-46.6567 788.0874,-80.9753 1217.9286,-93.1158 126.36,-3.5 252.4533,-5.2935 378.4833,-5.2935 2117.25,0 4186.8828,503.5207 6160.4828,1498.9207 z m 1328.588,-2507.304 c 169.631,-390.0897 291.04,-718.2835 382.877,-994.1381 L 8248.4721,3097.477 7648.3005,3821.4133 c 286.8472,-19.7863 585.0936,-31.0562 893.9289,-31.5288 h 20.4328 c 2086.9298,0 4129.0398,489.2295 6073.9398,1454.3295 z"
       transform="matrix(-0.01132969,-0.00419991,0.00419991,-0.01132969,185.4433,321.64495)" />
    <path
       style="font-size:28.2222px;line-height:1.25;font-family:Timmana;-inkscape-font-specification:'Timmana, Normal';text-align:center;letter-spacing:0px;word-spacing:0px;text-anchor:middle;fill:#000000;fill-opacity:1;stroke-width:0.264583"
       d="m 38.103288,166.67974 q -0.22289,0.25497 -0.33246,0.60902 -0.10957,0.35404 -0.13772,0.72928 -0.0281,0.37524 0.0251,0.77168 0.0249,0.37168 0.064,0.55573 l 4.39541,5.09185 q 0.6229,-0.25517 1.19251,-0.90678 0.86681,-0.99158 0.65029,-2.23043 -0.21651,-1.23886 -1.77846,-3.0541 -1.53004,-1.73737 -2.48241,-2.02011 -0.9276,-0.31108 -1.59629,0.45386 z m -5.42919,2.15127 2.15465,-2.46479 1.22889,1.22425 0.0248,-0.0283 q -0.0462,-0.29025 -0.0535,-0.79646 0.0174,-0.53452 0.0844,-1.12572 0.067,-0.59119 0.29329,-1.19307 0.22627,-0.6019 0.67206,-1.11184 0.59438,-0.67995 1.37657,-0.94581 0.78219,-0.26586 1.6779,-0.0326 0.92046,0.20488 1.98278,0.93359 1.05874,0.67563 2.24169,2.00962 1.21486,1.41184 1.83851,2.75671 0.64841,1.31654 0.78351,2.53419 0.13152,1.16457 -0.1972,2.2267 -0.35704,1.03735 -1.05048,1.83061 -0.94111,1.07657 -2.08072,1.57977 l 3.9952,4.69203 -2.27846,2.60644 z m 20.22784,-2.24546 -2.51434,2.43412 -7.91356,-10.8794 2.21695,-2.14621 1.14902,1.34922 0.027,-0.0262 q -0.22262,-1.04146 -0.0196,-2.07602 0.20305,-1.03457 0.82488,-1.63656 0.2974,-0.2879 0.5111,-0.33766 0.21456,-0.10297 0.40208,-0.17977 l 1.60636,2.68721 q -0.18839,0.13001 -0.53727,0.31064 -0.32184,0.15444 -0.61924,0.44235 -0.35147,0.34025 -0.49355,0.89679 -0.14211,0.55653 -0.21168,1.56667 z m 6.70139,-14.90394 q -1.22555,-2.0139 -2.16294,-2.55718 -0.93739,-0.54327 -1.77844,0.15206 -0.84105,0.69533 -0.6867,1.88598 0.15434,1.19065 1.40889,3.18057 1.27351,2.0719 2.20588,2.66815 0.90838,0.56726 1.77844,-0.15205 0.84105,-0.69532 0.66272,-1.91498 -0.14932,-1.24363 -1.42785,-3.26255 z m 2.78416,-2.30178 q 1.01981,1.64693 1.39498,3.04561 0.40416,1.37472 0.28859,2.59321 -0.11558,1.21852 -0.74586,2.22784 -0.63028,1.00932 -1.61633,1.82453 -0.98606,0.81521 -2.00887,1.17258 -1.0468,0.32836 -2.06732,0.0979 -1.01548,-0.28345 -2.02869,-1.1546 -1.0132,-0.8712 -2.00401,-2.5421 -1.00085,-1.56494 -1.37601,-2.96364 -0.37517,-1.39869 -0.23562,-2.58819 0.13955,-1.1895 0.74083,-2.17485 0.5773,-1.01434 1.56336,-1.82956 1.01506,-0.83919 2.06185,-1.16754 1.02281,-0.35736 2.04333,-0.12693 1.02053,0.23039 2.03372,1.10163 1.0132,0.8712 1.95605,2.48409 z m 6.82578,3.35809 -9.24403,-9.80422 2.91011,-2.01072 3.57783,4.25144 3.32059,4.47492 -1.74171,-5.56583 -1.47265,-5.706 2.97201,-2.05349 2.80465,14.25347 z m 12.25353,-15.67437 q -0.86184,-2.19431 -1.69212,-2.89036 -0.83028,-0.69604 -1.77816,-0.15533 -0.94787,0.54071 -1.0001,1.74019 -0.0522,1.19948 0.84231,3.37514 0.89914,2.25967 1.71537,3.00705 0.79759,0.71471 1.77816,0.15534 0.94787,-0.54071 0.98146,-1.77288 0.0663,-1.2508 -0.84692,-3.45915 z m 3.13781,-1.78996 q 0.72211,1.79748 0.85174,3.23979 0.1623,1.42368 -0.16062,2.60428 -0.32292,1.18062 -1.11703,2.06682 -0.7941,0.88622 -1.90541,1.52017 -1.1113,0.63394 -2.18027,0.81051 -1.08759,0.14388 -2.05345,-0.25822 -0.95181,-0.45344 -1.80051,-1.48555 -0.84873,-1.0321 -1.53814,-2.84825 -0.71751,-1.71344 -0.84712,-3.15577 -0.12963,-1.44231 0.21193,-2.59023 0.34157,-1.14793 1.103,-2.0155 0.74277,-0.90026 1.85408,-1.5342 1.14399,-0.65259 2.23159,-0.79647 1.06896,-0.17657 2.03481,0.22554 0.96585,0.4021 1.81455,1.43422 0.84873,1.0321 1.50085,2.78286 z m 7.48668,3.87706 -3.15178,1.52091 -5.77306,-17.93791 3.00697,-1.99419 z m 6.661471,-2.98474 -3.223851,1.36147 -4.86929,-18.20404 3.10287,-1.8414 z m 5.788151,-14.09587 q -0.64011,0.22147 -1.06969,1.16647 -0.40635,0.89713 -0.0401,2.76132 l 3.34277,-1.15655 q -0.37856,-1.89975 -0.96794,-2.45238 -0.58939,-0.55262 -1.26501,-0.31908 z m 6.39258,8.579 q -0.10533,0.1559 -0.42264,0.50463 -0.29409,0.30087 -0.82481,0.72341 -0.50747,0.37465 -1.24059,0.7876 -0.68527,0.43618 -1.5743,0.74377 -1.03128,0.35681 -2.07891,0.32109 -1.01207,-0.048 -1.875,-0.58564 -0.83967,-0.58549 -1.49461,-1.67291 -0.66725,-1.12295 -0.9843,-2.8449 -0.37856,-1.89975 -0.25251,-3.37681 0.1616,-1.48937 0.64862,-2.61353 0.52263,-1.13646 1.33515,-1.8954 0.8481,-0.7712 1.91492,-1.14035 1.03128,-0.35681 1.97222,-0.28418 0.92864,0.0371 1.70813,0.56373 0.7795,0.52667 1.37432,1.55522 0.59478,1.02857 0.92279,2.6671 0.12707,0.71258 0.15708,1.25965 0.0533,0.4992 0.007,0.59493 l -6.36548,2.20237 q 0.31705,1.72194 1.17998,2.25957 0.88618,0.48975 1.95301,0.12065 0.4623,-0.15995 0.89999,-0.39102 0.46096,-0.27894 0.80291,-0.55652 0.3775,-0.28992 0.64833,-0.54289 0.2707,-0.25314 0.47054,-0.48137 z m 9.26254,-3.30848 -0.073,0.0183 q -0.082,0.13702 -0.36429,0.55722 -0.25502,0.37455 -0.63767,0.85878 -0.39182,0.44774 -0.98442,0.86843 -0.59267,0.42061 -1.359,0.61336 -1.82468,0.45886 -2.68388,-0.48911 -0.86836,-0.98449 -1.15461,-3.35696 l -0.94338,-8.99745 3.43038,-0.86265 0.84179,8.13056 q 0.11056,0.74823 0.19336,1.23182 0.11014,0.43793 0.28385,0.66584 0.1737,0.22794 0.46589,0.30965 0.28299,0.0452 0.64792,-0.0465 0.36493,-0.0918 0.69316,-0.32951 0.31905,-0.27423 0.59242,-0.57578 0.26422,-0.33805 0.46459,-0.62126 0.19123,-0.31969 0.30966,-0.46588 l -0.98927,-9.17992 3.39388,-0.85347 1.54421,14.47253 q 0.27747,2.64631 -0.73344,4.18097 -1.00174,1.57115 -3.55628,2.21355 -1.35025,0.33955 -2.51848,0.32292 -1.16821,-0.0166 -1.7615,-0.0614 l 0.0695,-2.50077 q 0.59329,0.0448 1.47852,0.0162 0.92173,-0.0378 1.83407,-0.26721 0.43791,-0.11011 0.7845,-0.27488 0.39224,-0.13744 0.61993,-0.46633 0.22772,-0.32887 0.32737,-0.85835 0.0997,-0.52947 0.0437,-1.36904 z m 11.64624,-11.40243 q -0.33456,0.0525 -0.64581,0.25369 -0.31709,0.16401 -0.58531,0.39655 -0.2685,0.23225 -0.49344,0.49643 -0.19392,0.22085 -0.28206,0.3871 l 0.098,5.96477 q 0.41842,0.23906 0.79382,0.44678 0.36958,0.17055 0.81567,0.10056 1.3011,-0.20417 1.83609,-1.16418 0.56633,-1.00302 0.58591,-3.06295 -0.0584,-2.31433 -0.60734,-3.14236 -0.51174,-0.83386 -1.51546,-0.67637 z m -5.62908,-7.22992 3.45578,-1.03741 0.13374,7.40657 q 0.26238,-0.26975 0.58751,-0.62542 0.35644,-0.39872 0.76166,-0.72898 0.43661,-0.37322 0.96507,-0.64661 0.52845,-0.27337 1.12325,-0.36669 0.85501,-0.13416 1.6255,0.16392 0.76467,0.2609 1.33908,1.00877 0.57443,0.74785 0.92145,1.98845 0.3842,1.23479 0.39813,3.02283 0.0139,1.78804 -0.33952,3.17665 -0.31625,1.3828 -0.9628,2.3603 -0.60933,0.97168 -1.43153,1.55778 -0.82801,0.54891 -1.79457,0.70058 -0.63196,0.0992 -1.13858,0.0263 -0.50661,-0.0729 -0.91917,-0.27475 -0.41258,-0.20191 -0.71947,-0.45846 -0.26974,-0.26237 -0.49644,-0.49344 l -0.28129,1.60583 -2.89962,0.45498 z m 18.70548,13.85962 q 0.63838,-0.0409 1.21515,-0.45496 0.61194,-0.45397 0.95859,-0.92867 l 0.49587,-6.96983 q -0.34039,-0.0159 -0.75345,0.0106 -0.37794,-0.0135 -0.82856,0.0154 -1.2768,0.0818 -1.97007,1.03125 -0.65572,0.947 -0.84221,3.33444 -0.15118,2.34751 0.24217,3.18955 0.4309,0.83964 1.48236,0.77223 z m 5.35075,2.29648 -2.9291,0.18777 -0.10111,-1.57721 q -0.7077,0.7241 -1.71825,1.42991 -1.01295,0.66824 -2.32728,0.75249 -0.82617,0.053 -1.60128,-0.27443 -0.73758,-0.32977 -1.23876,-1.08949 -0.50358,-0.79727 -0.73564,-2.06442 -0.23207,-1.26716 -0.0847,-3.08653 0.13527,-2.00714 0.687,-3.39996 0.55174,-1.39281 1.36248,-2.27433 0.80835,-0.91907 1.83574,-1.36201 1.0274,-0.44293 2.07887,-0.51032 1.35189,-0.0867 2.86362,-0.0328 1.54929,0.0515 2.91803,0.22772 z m 6.36248,-0.003 -3.49948,-0.0249 2.72925,-18.64532 3.57821,-0.46372 z m 7.29501,0.25885 -3.49385,-0.19978 3.65773,-18.48561 3.5969,-0.28431 z m 7.2732,0.6212 -3.47577,-0.40732 3.41915,-13.01135 3.06466,0.35914 -0.31798,1.74343 0.0374,0.004 q 0.66572,-0.83128 1.59538,-1.32854 0.92968,-0.49724 1.78928,-0.39651 0.41112,0.0482 0.58484,0.18217 0.21551,0.10104 0.3936,0.19768 l -1.06487,2.94406 q -0.21997,-0.0632 -0.58048,-0.21952 -0.32321,-0.15155 -0.73433,-0.19972 -0.48586,-0.0569 -1.00676,0.18511 -0.5209,0.24206 -1.34721,0.82719 z"
       id="text3-3-1"
       aria-label="provolleyballr" />
    <path
       style="font-size:28.2222px;line-height:1.25;font-family:Timmana;-inkscape-font-specification:'Timmana, Normal';text-align:center;letter-spacing:0px;word-spacing:0px;text-anchor:middle;fill:#053e94;stroke-width:0.264583"
       d="m 36.948084,165.68281 q -0.222895,0.25497 -0.332459,0.60902 -0.109568,0.35404 -0.137718,0.72928 -0.02815,0.37524 0.02514,0.77168 0.02495,0.37168 0.06398,0.55573 l 4.395402,5.09185 q 0.6229,-0.25517 1.192517,-0.90678 0.866811,-0.99158 0.650291,-2.23043 -0.216512,-1.23886 -1.778463,-3.0541 -1.530039,-1.73737 -2.482413,-2.02011 -0.927596,-0.31108 -1.596284,0.45386 z m -5.429189,2.15127 2.154644,-2.46479 1.228896,1.22425 0.02477,-0.0283 q -0.04615,-0.29025 -0.05347,-0.79646 0.01745,-0.53452 0.08443,-1.12572 0.06698,-0.59119 0.293283,-1.19307 0.226275,-0.6019 0.672061,-1.11184 0.594383,-0.67995 1.376573,-0.94581 0.782195,-0.26586 1.677897,-0.0326 0.920468,0.20488 1.982781,0.93359 1.058745,0.67563 2.241694,2.00962 1.214858,1.41184 1.838505,2.75671 0.648416,1.31654 0.78351,2.53419 0.13152,1.16457 -0.197194,2.2267 -0.357046,1.03735 -1.050483,1.83061 -0.941109,1.07657 -2.080716,1.57977 l 3.9952,4.69203 -2.278467,2.60644 z m 20.22784,-2.24546 -2.514342,2.43412 -7.913562,-10.8794 2.216954,-2.14621 1.149016,1.34922 0.02701,-0.0262 q -0.22262,-1.04146 -0.01957,-2.07602 0.203049,-1.03457 0.824886,-1.63656 0.297392,-0.2879 0.511094,-0.33766 0.21456,-0.10297 0.402085,-0.17977 l 1.606358,2.68721 q -0.188391,0.13001 -0.53727,0.31064 -0.321842,0.15444 -0.619238,0.44235 -0.351474,0.34025 -0.493552,0.89679 -0.142112,0.55653 -0.211684,1.56667 z m 6.70139,-14.90394 q -1.225552,-2.0139 -2.162938,-2.55718 -0.937396,-0.54327 -1.778445,0.15206 -0.841051,0.69533 -0.6867,1.88598 0.154343,1.19065 1.408895,3.18057 1.273504,2.0719 2.205873,2.66815 0.908387,0.56726 1.778443,-0.15205 0.841049,-0.69532 0.662723,-1.91498 -0.149321,-1.24363 -1.427851,-3.26255 z m 2.784161,-2.30178 q 1.019806,1.64693 1.394975,3.04561 0.404158,1.37472 0.288593,2.59321 -0.115576,1.21852 -0.745856,2.22784 -0.630281,1.00932 -1.616337,1.82453 -0.986057,0.81521 -2.008872,1.17258 -1.046794,0.32836 -2.067313,0.0979 -1.015482,-0.28345 -2.028697,-1.1546 -1.013197,-0.8712 -2.004002,-2.5421 -1.000857,-1.56494 -1.376016,-2.96364 -0.375165,-1.39869 -0.235619,-2.58819 0.139548,-1.1895 0.74083,-2.17485 0.577298,-1.01434 1.563363,-1.82956 1.01506,-0.83919 2.061844,-1.16754 1.022815,-0.35736 2.043333,-0.12693 1.020527,0.23039 2.03372,1.10163 1.013198,0.8712 1.956054,2.48409 z m 6.825776,3.35809 -9.244025,-9.80422 2.910103,-2.01072 3.577833,4.25144 3.320594,4.47492 -1.741714,-5.56583 -1.472652,-5.706 2.972014,-2.05349 2.80465,14.25347 z m 12.253533,-15.67437 q -0.861842,-2.19431 -1.692124,-2.89036 -0.830281,-0.69604 -1.778155,-0.15533 -0.947874,0.54071 -1.000104,1.74019 -0.05222,1.19948 0.842309,3.37514 0.899137,2.25967 1.715375,3.00705 0.79759,0.71471 1.778155,0.15534 0.947875,-0.54071 0.981457,-1.77288 0.06627,-1.2508 -0.846913,-3.45915 z m 3.137804,-1.78996 q 0.722117,1.79748 0.851741,3.23979 0.162303,1.42368 -0.160617,2.60428 -0.322918,1.18062 -1.117027,2.06682 -0.794108,0.88622 -1.905413,1.52017 -1.111304,0.63394 -2.180266,0.81051 -1.087599,0.14388 -2.053451,-0.25822 -0.951814,-0.45344 -1.800518,-1.48555 -0.848726,-1.0321 -1.538131,-2.84825 -0.717515,-1.71344 -0.847129,-3.15577 -0.129624,-1.44231 0.211936,-2.59023 0.341573,-1.14793 1.102995,-2.0155 0.742776,-0.90026 1.854083,-1.5342 1.143987,-0.65259 2.231587,-0.79647 1.068961,-0.17657 2.03481,0.22554 0.965858,0.4021 1.814553,1.43422 0.848726,1.0321 1.500847,2.78286 z m 7.486683,3.87706 -3.151784,1.52091 -5.773051,-17.93791 3.006967,-1.99419 z m 6.661473,-2.98474 -3.223854,1.36147 -4.869289,-18.20404 3.102873,-1.8414 z m 5.788145,-14.09587 q -0.64011,0.22147 -1.0697,1.16647 -0.40633,0.89713 -0.0401,2.76132 l 3.34278,-1.15655 q -0.37856,-1.89975 -0.96794,-2.45238 -0.58939,-0.55262 -1.26501,-0.31908 z m 6.39258,8.579 q -0.10533,0.1559 -0.42264,0.50463 -0.29409,0.30087 -0.82481,0.72341 -0.50747,0.37465 -1.24059,0.7876 -0.68527,0.43618 -1.5743,0.74377 -1.03128,0.35681 -2.0789,0.32109 -1.01208,-0.048 -1.87501,-0.58564 -0.83967,-0.58549 -1.4946,-1.67291 -0.667257,-1.12295 -0.984304,-2.8449 -0.378567,-1.89975 -0.25252,-3.37681 0.16161,-1.48937 0.648627,-2.61353 0.522627,-1.13646 1.335137,-1.8954 0.84811,-0.7712 1.91492,-1.14035 1.03129,-0.35681 1.97223,-0.28418 0.92864,0.0371 1.70813,0.56373 0.7795,0.52667 1.37432,1.55522 0.59478,1.02857 0.92279,2.6671 0.12707,0.71258 0.15708,1.25965 0.0533,0.4992 0.007,0.59493 l -6.36548,2.20237 q 0.31705,1.72194 1.17998,2.25957 0.88618,0.48975 1.95301,0.12065 0.4623,-0.15995 0.89999,-0.39102 0.46096,-0.27894 0.80291,-0.55652 0.3775,-0.28992 0.64833,-0.54289 0.2707,-0.25314 0.47054,-0.48137 z m 9.26254,-3.30848 -0.073,0.0183 q -0.082,0.13702 -0.36429,0.55722 -0.25502,0.37455 -0.63767,0.85878 -0.39182,0.44774 -0.98442,0.86843 -0.59267,0.42061 -1.359,0.61336 -1.82468,0.45886 -2.68388,-0.48911 -0.86836,-0.98449 -1.15461,-3.35696 l -0.94338,-8.99745 3.43038,-0.86265 0.84179,8.13056 q 0.11056,0.74823 0.19336,1.23182 0.11014,0.43793 0.28385,0.66584 0.1737,0.22794 0.46589,0.30965 0.28299,0.0452 0.64792,-0.0465 0.36493,-0.0918 0.69316,-0.32951 0.31905,-0.27423 0.59242,-0.57578 0.26422,-0.33805 0.46459,-0.62126 0.19123,-0.31969 0.30966,-0.46588 l -0.98927,-9.17992 3.39388,-0.85347 1.54421,14.47253 q 0.27747,2.64631 -0.73344,4.18097 -1.00174,1.57115 -3.55628,2.21355 -1.35025,0.33955 -2.51848,0.32292 -1.16821,-0.0166 -1.7615,-0.0614 l 0.0695,-2.50077 q 0.59329,0.0448 1.47852,0.0162 0.92173,-0.0378 1.83407,-0.26721 0.43791,-0.11011 0.7845,-0.27488 0.39224,-0.13744 0.61993,-0.46633 0.22772,-0.32887 0.32737,-0.85835 0.0997,-0.52947 0.0437,-1.36904 z m 11.64624,-11.40243 q -0.33456,0.0525 -0.64581,0.25369 -0.31709,0.16401 -0.58531,0.39655 -0.2685,0.23225 -0.49344,0.49643 -0.19392,0.22085 -0.28206,0.3871 l 0.098,5.96477 q 0.41842,0.23906 0.79382,0.44678 0.36958,0.17055 0.81567,0.10056 1.3011,-0.20417 1.83609,-1.16418 0.56633,-1.00302 0.58591,-3.06295 -0.0584,-2.31433 -0.60734,-3.14236 -0.51174,-0.83386 -1.51546,-0.67637 z m -5.62908,-7.22992 3.45578,-1.03741 0.13374,7.40657 q 0.26238,-0.26975 0.58751,-0.62542 0.35644,-0.39872 0.76166,-0.72898 0.43661,-0.37322 0.96507,-0.64661 0.52845,-0.27337 1.12325,-0.36669 0.85501,-0.13416 1.6255,0.16392 0.76467,0.2609 1.33908,1.00877 0.57443,0.74785 0.92145,1.98845 0.3842,1.23479 0.39813,3.02283 0.0139,1.78804 -0.33952,3.17665 -0.31625,1.3828 -0.9628,2.3603 -0.60933,0.97168 -1.43153,1.55778 -0.82801,0.54891 -1.79457,0.70058 -0.63196,0.0992 -1.13858,0.0263 -0.50661,-0.0729 -0.91917,-0.27475 -0.41258,-0.20191 -0.71947,-0.45846 -0.26974,-0.26237 -0.49644,-0.49344 l -0.28129,1.60583 -2.89962,0.45498 z m 18.70548,13.85962 q 0.63838,-0.0409 1.21515,-0.45496 0.61194,-0.45397 0.95859,-0.92867 l 0.49587,-6.96983 q -0.34039,-0.0159 -0.75345,0.0106 -0.37794,-0.0135 -0.82856,0.0154 -1.2768,0.0818 -1.97007,1.03125 -0.65572,0.947 -0.84221,3.33444 -0.15118,2.34751 0.24217,3.18955 0.4309,0.83964 1.48236,0.77223 z m 5.35075,2.29648 -2.9291,0.18777 -0.10111,-1.57721 q -0.7077,0.7241 -1.71825,1.42991 -1.01295,0.66824 -2.32728,0.75249 -0.82617,0.053 -1.60128,-0.27443 -0.73758,-0.32977 -1.23876,-1.08949 -0.50358,-0.79727 -0.73564,-2.06442 -0.23207,-1.26716 -0.0847,-3.08653 0.13527,-2.00714 0.687,-3.39996 0.55174,-1.39281 1.36248,-2.27433 0.80835,-0.91907 1.83574,-1.36201 1.0274,-0.44293 2.07887,-0.51032 1.35189,-0.0867 2.86362,-0.0328 1.54929,0.0515 2.91803,0.22772 z m 6.36248,-0.003 -3.49948,-0.0249 2.72925,-18.64532 3.57821,-0.46372 z m 7.29501,0.25885 -3.49385,-0.19978 3.65773,-18.48561 3.5969,-0.28431 z m 7.2732,0.6212 -3.47577,-0.40732 3.41915,-13.01135 3.06466,0.35914 -0.31798,1.74343 0.0374,0.004 q 0.66572,-0.83128 1.59538,-1.32854 0.92968,-0.49724 1.78928,-0.39651 0.41112,0.0482 0.58484,0.18217 0.21551,0.10104 0.3936,0.19768 l -1.06487,2.94406 q -0.21997,-0.0632 -0.58048,-0.21952 -0.32321,-0.15155 -0.73433,-0.19972 -0.48586,-0.0569 -1.00676,0.18511 -0.5209,0.24206 -1.34721,0.82719 z"
       id="text3-3"
       aria-label="provolleyballr" />
  </g>
</svg>
